<svg xmlns="http://www.w3.org/2000/svg" viewBox="0 0 32 32">
  <circle fill="#231f20" cx="16" cy="16" r="16"/>
  <path fill="#fff" d="M15.95,29.05c-.05,0-.09,0-.14-.01-.12-.02-2.94-.49-5.77-2.45-2.64-1.82-5.79-5.32-5.77-11.62,0-.48.39-.87.87-.87s.87.39.87.87c-.01,4.42,1.66,7.83,4.96,10.14,1.55,1.08,3.11,1.66,4.1,1.95V4.05c0-.23.08-.45.23-.61.3-.32.76-.37,1.11-.15l11.01,6.83c.37.23.54.7.36,1.1-.22.5-.82.67-1.26.4L15.25,5.53v22.43c0,.12-.02.24-.07.36-.15.34-.47.53-.81.53.27,0,.53-.19.68-.36.11-.12.12-.28.01-.4s-.31-.17-.42-.01c-.04.06-.12.1-.19.1Z"/>
  <path fill="#fff" d="M18.96,28.85c-.41,0-.77-.29-.86-.7-.09-.47.21-.93.69-1.03.01,0,1.97-.45,4.48-2.83,1.43-1.36,2.18-2.93,2.55-3.93h-3.48c-.26,0-.52-.11-.69-.31-.31-.37-.26-.9.07-1.21l3.13-2.96H12.69c-.48,0-.87-.39-.87-.87V5.88L5.46,11.42c-.34.3-.85.32-1.18.02-.4-.36-.38-.97,0-1.32l7.75-6.84c.33-.29.82-.3,1.17.01.19.17.28.42.28.67v9.91h13.41c.26,0,.52.11.69.31.31.37.26.9-.07,1.21l-3.11,2.96h2.51c.12,0,.25.02.36.07.39.18.58.58.51.96-.03.13-.64,3.31-3.37,5.91-2.91,2.77-5.25,3.26-5.35,3.28-.06.01-.12.02-.17.02Z"/>
</svg>
