<?xml version="1.0" encoding="UTF-8"?>
<svg id="Layer_2" data-name="Layer 2" xmlns="http://www.w3.org/2000/svg" viewBox="0 0 512 512">
  <defs>
    <style>
      .cls-1 {
        fill: #231f20;
      }

      .cls-2 {
        fill: #fff;
      }
    </style>
  </defs>
  <g id="Layer_1-2" data-name="Layer 1">
    <g>
      <rect class="cls-2" x="0" y="0" width="512" height="512" rx="256" ry="256"/>
      <path class="cls-1" d="M255.13,462.87c-.74,0-1.48-.06-2.23-.18-1.9-.31-47-7.85-92.38-39.19-42.27-29.19-92.61-85.13-92.37-185.89.02-7.71,6.27-13.95,13.98-13.95h.03c7.72,0,13.96,6.27,13.95,13.99-.18,70.75,26.56,125.33,79.45,162.25,24.74,17.26,49.83,26.58,65.59,31.2V64.8c0-3.61,1.21-7.18,3.67-9.81,4.75-5.08,12.13-5.85,17.68-2.41l176.12,109.3c5.95,3.69,8.65,11.22,5.84,17.64-3.5,8-13.07,10.78-20.22,6.35l-155.14-96.28v359.1c0,1.95-.3,3.91-1.09,5.7-2.41,5.42-7.55,8.49-12.89,8.49Z"/>
      <path class="cls-1" d="M303.38,457.45c-6.53,0-12.37-4.6-13.69-11.25-1.51-7.57,3.4-14.93,10.97-16.45.21-.05,31.57-7.13,71.73-45.35,22.81-21.7,34.85-46.8,40.75-62.88h-55.64c-4.21,0-8.33-1.69-11.02-4.92-4.98-5.99-4.21-14.36,1.05-19.34l50.08-47.38h-194.91c-7.72,0-13.98-6.26-13.98-13.98V94.09l-100.44,88.67c-5.38,4.75-13.62,5.13-18.95.32-6.36-5.74-6.15-15.56.07-21.06l124.07-109.53c5.2-4.6,13.18-4.79,18.71.21,2.98,2.69,4.49,6.65,4.49,10.66v158.57s214.57,0,214.57,0c4.22,0,8.36,1.7,11.04,4.95,4.93,5.99,4.15,14.34-1.07,19.31l-49.81,47.38h40.23c2,0,4,.32,5.82,1.15,6.22,2.84,9.26,9.25,8.13,15.38-.4,2.15-10.25,53.03-53.91,94.57-46.59,44.34-83.97,52.2-85.54,52.51-.92.18-1.84.27-2.75.27Z"/>
    </g>
  </g>
</svg>